<svg width="24" height="24" viewBox="0 0 24 24" fill="none" xmlns="http://www.w3.org/2000/svg">
<path fill-rule="evenodd" clip-rule="evenodd" d="M12.0019 0C15.21 0 18.2248 1.24723 20.4893 3.51279C25.1702 8.19354 25.1702 15.8087 20.4893 20.4894C18.1947 22.7851 15.105 24 11.9751 24C10.2689 24 8.55156 23.6393 6.94475 22.8957C6.4713 22.7059 6.028 22.5272 5.70977 22.5272C5.34351 22.5295 4.85109 22.6992 4.37541 22.8633C3.39948 23.1983 2.1846 23.6159 1.28572 22.7204C0.390189 21.8238 0.803338 20.6123 1.13609 19.6375C1.30023 19.1573 1.46884 18.6616 1.46884 18.2864C1.46884 17.9782 1.32033 17.5852 1.09254 17.0191C-0.998887 12.5025 -0.0318938 7.05909 3.51561 3.51391C5.78011 1.24835 8.79387 0 12.0019 0ZM12.003 1.67489C9.24163 1.67489 6.64773 2.74905 4.69922 4.69861C1.64639 7.74914 0.815621 12.4332 2.63013 16.3558C2.89142 17.0023 3.14377 17.6321 3.14377 18.2864C3.14377 18.9396 2.91933 19.5973 2.72169 20.1779C2.55866 20.6558 2.31189 21.3771 2.47045 21.5357C2.62566 21.6965 3.35146 21.443 3.83049 21.2789C4.40555 21.0823 5.05766 20.8568 5.70418 20.8523C6.35182 20.8523 6.96261 21.098 7.60914 21.3581C11.5698 23.1894 16.254 22.3564 19.3057 19.3059C23.3323 15.2772 23.3323 8.72392 19.3057 4.6975C17.3561 2.74793 14.7633 1.67489 12.003 1.67489ZM16.4102 11.3476C17.0266 11.3476 17.5268 11.8467 17.5268 12.4642C17.5268 13.0816 17.0266 13.5808 16.4102 13.5808C15.7938 13.5808 15.2891 13.0816 15.2891 12.4642C15.2891 11.8467 15.7838 11.3476 16.4002 11.3476H16.4102ZM11.9339 11.3476C12.5503 11.3476 13.0505 11.8467 13.0505 12.4642C13.0505 13.0816 12.5503 13.5808 11.9339 13.5808C11.3175 13.5808 10.8128 13.0816 10.8128 12.4642C10.8128 11.8467 11.3064 11.3476 11.9239 11.3476H11.9339ZM7.45716 11.3476C8.07354 11.3476 8.57378 11.8467 8.57378 12.4642C8.57378 13.0816 8.07354 13.5808 7.45716 13.5808C6.84079 13.5808 6.33608 13.0816 6.33608 12.4642C6.33608 11.8467 6.83074 11.3476 7.44712 11.3476H7.45716Z" fill="black"/>
</svg>
