<svg width="24" height="24" viewBox="0 0 24 24" fill="none" xmlns="http://www.w3.org/2000/svg">
<path fill-rule="evenodd" clip-rule="evenodd" d="M11.9983 1.27884C13.9045 0.0136831 16.4366 -0.335835 18.6241 0.400122C23.3824 2.01111 24.8595 7.45695 23.5383 11.7902C21.4997 18.596 12.7931 23.6726 12.4239 23.8855C12.2926 23.9619 12.1472 24 12.0018 24C11.8565 24 11.7123 23.9631 11.581 23.888C11.2141 23.6776 2.57078 18.676 0.464175 11.7915L0.463003 11.7902C-0.859338 7.45572 0.613056 2.00865 5.36669 0.400122C7.59872 -0.357988 10.0312 -0.0244686 11.9983 1.27884ZM5.90594 2.15756C2.05966 3.45964 1.09369 7.80278 2.1382 11.2278C3.78175 16.5961 10.2751 20.9368 12.0007 22.0112C13.7321 20.9257 20.2723 16.537 21.8631 11.2327C22.9076 7.80401 21.9382 3.46087 18.086 2.15756C16.2197 1.52867 14.0428 1.91142 12.5399 3.13227C12.2257 3.3858 11.7897 3.39072 11.4731 3.13966C9.88117 1.88311 7.80153 1.51514 5.90594 2.15756ZM16.9606 4.6016C18.5585 5.14434 19.678 6.6298 19.8151 8.386C19.8538 8.89428 19.4939 9.3398 19.0098 9.38041C18.9852 9.38287 18.9617 9.3841 18.9371 9.3841C18.4834 9.3841 18.0989 9.01858 18.0614 8.53615C17.984 7.52451 17.3393 6.67041 16.4214 6.35904C15.9583 6.20151 15.7051 5.68093 15.854 5.19726C16.0052 4.71237 16.4964 4.449 16.9606 4.6016Z" fill="black"/>
</svg>
