<svg width="24" height="24" viewBox="0 0 24 24" fill="none" xmlns="http://www.w3.org/2000/svg">
<path fill-rule="evenodd" clip-rule="evenodd" d="M13.7175 15.9491C15.127 15.9491 16.2743 17.035 16.2743 18.3697V21.8026C16.2743 22.0894 16.5155 22.3193 16.8246 22.326H19.056C20.8144 22.326 22.2439 20.9801 22.2439 19.3262V9.59012C22.2357 9.02096 21.9512 8.48528 21.463 8.12927L13.7444 2.26131C12.7083 1.47899 11.2589 1.47899 10.2193 2.26354L2.55337 8.12704C2.04644 8.4942 1.76195 9.02989 1.7561 9.6091V19.3262C1.7561 20.9801 3.18556 22.326 4.944 22.326H7.19649C7.51376 22.326 7.77132 22.086 7.77132 21.7914C7.77132 21.7267 7.77951 21.662 7.79356 21.6006V18.3697C7.79356 17.0428 8.93385 15.9581 10.3329 15.9491H13.7175ZM19.056 24H16.8035C15.5134 23.971 14.5182 23.0056 14.5182 21.8026V18.3697C14.5182 17.9579 14.1588 17.6231 13.7175 17.6231H10.3387C9.90673 17.6254 9.54966 17.9613 9.54966 18.3697V21.7914C9.54966 21.8751 9.53795 21.9555 9.51337 22.0314C9.38693 23.1362 8.39649 24 7.19649 24H4.944C2.21737 24 0 21.903 0 19.3262V9.60128C0.0117073 8.49197 0.547902 7.47641 1.47395 6.80792L9.12468 0.954465C10.8094 -0.317783 13.1567 -0.317783 14.8379 0.952233L22.5436 6.81127C23.4486 7.4686 23.9848 8.48193 24 9.57785V19.3262C24 21.903 21.7826 24 19.056 24Z" fill="black"/>
</svg>
