<svg width="20" height="24" viewBox="0 0 26 30" fill="none" xmlns="http://www.w3.org/2000/svg">
<path fill-rule="evenodd" clip-rule="evenodd" d="M12.6913 0C19.6898 0 25.3836 5.73692 25.3836 12.7892C25.3836 21.4585 15.4513 30 12.6913 30C9.93131 30 -0.000999451 21.4585 -0.000999451 12.7892C-0.000999451 5.73692 5.69285 0 12.6913 0ZM12.6913 2.30769C6.96516 2.30769 2.30669 7.01077 2.30669 12.7892C2.30669 20.1415 10.959 27.3046 12.6913 27.6862C14.4236 27.3031 23.0759 20.14 23.0759 12.7892C23.0759 7.01077 18.4175 2.30769 12.6913 2.30769ZM12.6928 7.69231C15.4498 7.69231 17.6928 9.93539 17.6928 12.6938C17.6928 15.4508 15.4498 17.6923 12.6928 17.6923C9.93592 17.6923 7.69285 15.4508 7.69285 12.6938C7.69285 9.93539 9.93592 7.69231 12.6928 7.69231ZM12.6928 10C11.2082 10 10.0005 11.2077 10.0005 12.6938C10.0005 14.1785 11.2082 15.3846 12.6928 15.3846C14.1775 15.3846 15.3852 14.1785 15.3852 12.6938C15.3852 11.2077 14.1775 10 12.6928 10Z" fill="white"/>
</svg>
