<svg width="25" height="31" viewBox="0 0 25 31" fill="none" xmlns="http://www.w3.org/2000/svg">
<path d="M24.8 25.3116C24.8 30.4095 17.7234 31 12.4 31C11.8634 31 11.3347 30.9922 10.8153 30.9767C10.1976 30.9613 9.711 30.4482 9.72971 29.8329C9.74687 29.2191 10.2803 28.7572 10.8792 28.7526C11.3784 28.7665 11.8853 28.7727 12.4 28.7727C19.1412 28.7727 22.5602 27.6087 22.5602 25.3116C22.5602 22.9929 19.1412 21.8165 12.4 21.8165C5.65877 21.8165 2.2398 22.9821 2.2398 25.2806C2.2398 26.0324 2.50808 27.122 4.83678 27.9063C5.42325 28.1031 5.73676 28.734 5.53867 29.3152C5.33902 29.8964 4.70576 30.2142 4.11774 30.0127C0.714365 28.8673 0 26.8074 0 25.2806C0 20.2853 6.79069 19.6167 12.072 19.5915L12.9903 19.5918C16.5124 19.6098 24.8 19.9208 24.8 25.3116ZM12.4 0C17.0044 0 20.7493 3.72301 20.7493 8.29849C20.7493 12.8724 17.0044 16.5954 12.4 16.5954C7.79562 16.5954 4.04911 12.8724 4.04911 8.29849C4.04911 3.72301 7.79562 0 12.4 0ZM12.4 2.22729C9.03095 2.22729 6.29047 4.95058 6.29047 8.29849C6.29047 11.6449 9.03095 14.3681 12.4 14.3681C15.7691 14.3681 18.5095 11.6449 18.5095 8.29849C18.5095 4.95058 15.7691 2.22729 12.4 2.22729Z" fill="black"/>
</svg>
